<?xml version="1.0" standalone="no"?>
<!DOCTYPE svg PUBLIC "-//W3C//DTD SVG 20010904//EN"
 "http://www.w3.org/TR/2001/REC-SVG-20010904/DTD/svg10.dtd">
<svg version="1.0" xmlns="http://www.w3.org/2000/svg"
 width="981.000000pt" height="981.000000pt" viewBox="0 0 981.000000 981.000000"
 preserveAspectRatio="xMidYMid meet">
<metadata>
Created by potrace 1.14, written by Peter Selinger 2001-2017
</metadata>
<g transform="translate(0.000000,981.000000) scale(0.100000,-0.100000)"
fill="#000000" stroke="none">
<path d="M4887 8214 c-1 -1 -64 -5 -139 -8 -76 -4 -148 -9 -160 -11 -13 -2
-48 -6 -79 -10 -49 -5 -223 -34 -302 -50 -15 -3 -78 -19 -140 -35 -1041 -271
-1895 -1019 -2306 -2018 -63 -155 -112 -304 -155 -480 -39 -158 -55 -242 -71
-377 -4 -33 -9 -68 -11 -78 -23 -123 -22 -562 1 -737 3 -19 7 -54 10 -77 3
-23 8 -59 11 -80 3 -21 7 -47 9 -58 3 -17 24 -124 39 -192 50 -233 160 -534
284 -778 250 -492 627 -926 1088 -1252 208 -147 475 -292 705 -382 205 -80
427 -143 654 -186 27 -4 111 -17 200 -30 173 -25 679 -26 810 -1 11 2 47 7 80
11 32 4 67 8 76 10 9 2 34 6 55 9 21 4 67 13 101 21 35 8 75 17 91 20 69 12
320 91 447 141 322 127 672 330 911 529 26 22 64 53 83 70 74 61 311 303 388
395 217 261 397 555 522 850 18 41 36 84 41 95 21 46 93 268 120 370 33 123
63 269 80 390 6 44 13 90 15 102 18 110 25 499 11 663 -11 144 -46 381 -65
448 -5 18 -10 35 -10 37 1 41 -88 337 -147 488 -112 288 -256 549 -437 794
l-61 82 -65 -46 c-36 -26 -85 -60 -109 -76 -37 -27 -41 -33 -30 -48 7 -9 45
-62 84 -116 297 -413 503 -938 559 -1428 3 -27 8 -61 10 -75 21 -128 20 -512
-1 -665 -2 -16 -6 -52 -9 -80 -3 -27 -7 -57 -10 -65 -2 -8 -7 -35 -10 -60 -23
-170 -118 -491 -205 -695 -355 -830 -1033 -1461 -1889 -1759 -96 -33 -261 -81
-321 -92 -14 -2 -56 -11 -95 -19 -38 -8 -86 -17 -105 -19 -19 -3 -51 -7 -70
-10 -197 -33 -616 -39 -780 -12 -14 3 -49 7 -79 10 -30 4 -64 9 -75 11 -12 2
-37 7 -56 10 -30 4 -169 34 -234 50 -469 114 -984 395 -1350 735 -473 440
-785 968 -935 1580 -34 141 -35 147 -56 285 -25 161 -30 248 -30 470 0 220 5
302 31 474 86 582 354 1159 747 1606 85 97 240 250 322 318 33 27 62 53 65 56
11 15 201 152 280 203 109 70 266 157 386 213 85 40 354 145 372 145 4 0 41
11 83 24 76 24 279 70 354 80 22 3 57 9 78 12 235 37 632 39 862 3 39 -6 86
-12 105 -15 19 -2 77 -13 128 -24 343 -74 663 -198 952 -370 l100 -59 71 96
c39 52 73 101 75 108 10 25 -334 215 -551 303 -190 77 -479 164 -619 186 -21
4 -41 8 -45 10 -3 2 -28 6 -56 10 -27 3 -59 8 -70 10 -12 2 -48 7 -80 11 -33
4 -71 9 -85 11 -35 6 -388 22 -393 18z"/>
<path d="M7091 7684 c-86 -18 -142 -47 -210 -109 -92 -86 -139 -193 -139 -320
0 -278 250 -484 525 -434 72 14 166 64 220 118 61 61 64 66 91 123 103 221 14
479 -201 585 -95 47 -181 58 -286 37z"/>
<path d="M3712 6612 c-29 -4 -54 -43 -54 -85 -1 -34 10 -252 17 -382 3 -44 7
-124 10 -179 4 -107 -1 -98 85 -158 25 -17 47 -35 50 -38 7 -9 205 -120 280
-157 89 -44 290 -124 299 -119 3 2 6 242 6 533 -1 559 -1 564 -47 579 -22 8
-599 12 -646 6z"/>
<path d="M4915 6608 c-60 -16 -69 -35 -196 -422 -66 -204 -147 -449 -180 -545
-32 -95 -59 -175 -59 -177 0 -9 342 -103 431 -119 22 -4 30 7 83 108 32 62 63
116 67 122 5 5 10 -14 10 -45 1 -30 3 -77 4 -105 2 -27 3 -64 4 -81 1 -31 2
-31 74 -43 74 -12 93 -14 187 -25 30 -4 71 -9 90 -11 43 -5 170 -16 230 -20
25 -2 141 -6 257 -10 l213 -7 331 665 c341 685 350 707 302 719 -10 2 -155 4
-323 3 -340 -1 -354 -3 -387 -63 -12 -20 -105 -291 -208 -602 -201 -604 -213
-636 -223 -625 -4 3 -7 279 -7 613 -1 643 0 638 -48 664 -25 14 -604 19 -652
6z"/>
<path d="M3696 5598 c2 -40 6 -113 9 -163 5 -93 12 -229 19 -420 3 -60 8 -184
12 -275 3 -91 7 -191 8 -222 1 -31 5 -60 9 -64 8 -8 715 -12 726 -4 4 3 43 73
85 155 224 430 297 576 291 585 -3 5 -15 10 -26 10 -23 0 -258 60 -344 88 -33
11 -63 17 -66 13 -4 -3 -14 -30 -24 -59 -9 -29 -19 -52 -21 -50 -2 2 -4 34 -5
71 -1 37 -6 67 -11 67 -6 0 -26 7 -46 16 -21 9 -46 20 -57 24 -166 65 -377
175 -491 256 -34 24 -64 44 -67 44 -3 0 -4 -33 -1 -72z"/>
<path d="M5054 4991 c4 -91 9 -202 12 -246 3 -44 6 -127 8 -184 2 -57 8 -106
14 -110 8 -4 551 -6 644 -2 12 1 61 91 167 305 83 168 151 308 151 313 0 4
-42 8 -93 8 -83 1 -329 12 -432 19 -63 5 -235 25 -275 32 -14 2 -45 7 -70 10
-25 3 -65 9 -89 14 l-43 8 6 -167z"/>
<path d="M3767 4135 c-70 -28 -92 -47 -120 -100 -15 -29 -21 -59 -21 -106 0
-111 26 -137 216 -218 120 -50 73 -161 -62 -148 -65 6 -111 26 -157 70 -18 17
-35 28 -38 25 -6 -6 -11 -27 -20 -95 -4 -26 -9 -55 -11 -63 -4 -15 54 -47 105
-58 49 -11 191 -8 232 4 97 30 158 113 160 217 2 108 -38 152 -188 206 -95 35
-122 78 -78 129 20 24 31 27 86 29 65 1 138 -25 168 -61 25 -30 34 -17 46 70
3 21 8 48 10 60 4 18 -3 24 -48 39 -28 10 -90 19 -137 21 -71 3 -94 -1 -143
-21z"/>
<path d="M5121 4141 c-70 -25 -101 -49 -130 -101 -33 -59 -37 -150 -8 -202 25
-46 53 -66 152 -107 93 -38 115 -55 115 -88 0 -38 -17 -60 -56 -73 -72 -24
-167 2 -231 63 -18 17 -35 29 -37 26 -2 -2 -11 -39 -18 -82 -18 -93 -14 -99
63 -126 42 -14 78 -18 145 -16 49 1 96 5 104 7 108 34 171 113 172 219 0 107
-36 148 -180 204 -111 43 -135 89 -76 142 35 32 143 27 201 -10 23 -15 44 -31
48 -37 17 -27 28 -6 40 76 4 21 8 47 11 56 15 52 -207 87 -315 49z"/>
<path d="M2275 4068 c2 -46 7 -182 11 -303 7 -210 10 -301 13 -317 0 -5 36 -8
79 -8 l77 0 85 229 c47 126 87 227 89 225 2 -2 5 -27 6 -56 1 -29 6 -125 10
-213 4 -88 8 -166 8 -172 0 -9 22 -13 77 -13 l76 0 58 158 c32 86 62 166 67
177 5 11 24 63 43 115 19 52 48 132 65 178 l30 82 -69 0 c-83 0 -65 28 -165
-268 -37 -111 -69 -201 -72 -199 -2 2 -6 80 -9 173 -3 93 -6 196 -8 229 l-2
60 -70 3 -70 3 -92 -243 -91 -243 0 243 -1 242 -74 0 -75 0 4 -82z"/>
<path d="M3165 4138 c-3 -11 -23 -122 -41 -233 -2 -11 -5 -31 -8 -45 -12 -61
-51 -286 -62 -350 -3 -19 -7 -43 -10 -52 -5 -17 9 -18 194 -18 l200 0 7 48 c3
26 9 57 12 70 5 22 5 22 -121 22 -94 0 -126 3 -125 13 0 6 6 44 12 82 l12 70
120 5 119 5 8 45 c4 25 10 55 13 68 5 22 5 22 -115 22 l-120 0 5 23 c9 34 13
60 14 80 1 15 14 17 130 17 l129 0 6 28 c3 15 8 46 11 70 l7 42 -196 0 c-149
0 -198 -3 -201 -12z"/>
<path d="M4186 4107 c-4 -24 -9 -56 -12 -70 l-4 -27 85 0 c77 0 86 -2 81 -17
-5 -21 -13 -64 -21 -113 -3 -19 -7 -46 -10 -60 -9 -48 -15 -85 -21 -120 -3
-19 -7 -42 -9 -50 -2 -8 -7 -35 -10 -60 -4 -25 -10 -63 -15 -85 -15 -66 -16
-65 60 -65 39 0 70 3 71 8 1 11 8 52 19 107 5 28 12 66 15 85 3 19 8 49 12 65
3 17 7 39 9 50 2 11 6 34 9 50 6 35 15 88 22 130 3 17 7 37 8 45 2 8 4 18 4
22 1 4 40 9 88 10 l87 3 3 35 c2 19 8 47 13 62 4 14 6 29 3 32 -4 3 -113 6
-244 6 l-237 0 -6 -43z"/>
<path d="M5529 4133 c0 -10 -2 -25 -4 -33 -1 -8 -5 -32 -9 -52 l-6 -38 84 0
c75 0 84 -2 82 -17 -2 -10 -7 -38 -12 -63 -4 -25 -8 -47 -9 -50 0 -3 -4 -27
-9 -53 -4 -27 -9 -59 -12 -70 -2 -12 -7 -35 -9 -52 -9 -50 -25 -139 -29 -160
-2 -11 -7 -39 -11 -62 l-7 -43 70 0 c80 0 74 -8 92 110 7 41 14 82 15 92 2 9
7 38 11 65 5 26 8 50 9 53 1 3 4 19 8 35 3 17 8 46 11 65 3 19 10 59 16 89 5
29 10 55 10 57 0 2 38 4 84 4 93 0 90 -3 102 88 2 19 7 38 10 43 3 5 -99 9
-240 9 -227 0 -246 -1 -247 -17z"/>
<path d="M6185 4003 c-37 -82 -82 -179 -100 -218 -18 -38 -44 -96 -59 -127
-14 -32 -42 -91 -61 -132 -19 -41 -35 -77 -35 -80 0 -3 33 -6 73 -6 l74 0 27
70 28 70 104 0 104 0 2 -42 c1 -24 2 -50 4 -58 1 -8 2 -21 3 -27 1 -9 22 -13
72 -13 l70 0 -6 58 c-7 71 -13 124 -19 182 -8 65 -15 126 -22 195 -3 33 -7 71
-8 85 -15 125 -19 176 -18 183 1 4 -36 7 -82 7 l-84 0 -67 -147z m130 -148 c3
-55 7 -109 8 -120 2 -18 -5 -20 -66 -23 -63 -3 -67 -2 -59 15 5 10 19 38 30
63 10 25 32 73 47 108 15 34 29 61 31 60 1 -2 5 -48 9 -103z"/>
<path d="M6705 4138 c-2 -7 -18 -92 -35 -188 -16 -96 -32 -185 -34 -196 -3
-12 -7 -37 -10 -55 -3 -19 -7 -43 -10 -54 -2 -11 -9 -54 -16 -95 -6 -41 -14
-83 -16 -92 -5 -16 3 -18 70 -18 65 0 75 2 74 18 0 9 2 31 6 47 11 55 14 70
21 115 12 78 13 80 55 80 l38 0 37 -97 c68 -177 56 -163 141 -163 73 0 74 1
70 24 -2 13 -9 32 -15 42 -6 11 -24 51 -40 89 -16 39 -36 87 -45 107 l-16 37
38 21 c92 52 140 201 94 295 -36 74 -86 92 -265 94 -105 2 -138 -1 -142 -11z
m252 -141 c28 -30 23 -102 -10 -134 -22 -22 -38 -28 -91 -31 -51 -3 -64 -1
-62 9 2 8 7 37 11 64 5 28 10 53 11 58 1 4 2 18 3 33 1 24 3 25 61 23 44 -2
64 -7 77 -22z"/>
<path d="M7249 4133 c0 -10 -2 -27 -4 -38 -2 -11 -7 -35 -10 -52 l-6 -33 86 0
c77 0 86 -2 81 -17 -5 -21 -13 -64 -21 -113 -3 -19 -7 -46 -10 -60 -3 -14 -7
-41 -10 -60 -3 -19 -7 -46 -10 -60 -3 -14 -7 -38 -10 -55 -3 -16 -7 -41 -10
-55 -11 -57 -25 -134 -25 -142 0 -4 31 -8 70 -8 64 0 70 2 74 23 3 12 15 78
26 147 12 69 23 136 26 150 2 14 7 40 10 59 3 18 8 43 10 55 2 11 6 35 9 51
16 93 7 85 100 85 l84 0 6 38 c4 20 11 52 15 70 l8 32 -244 0 c-225 0 -244 -1
-245 -17z"/>
</g>
</svg>
